<svg width="24" height="24" viewBox="0 0 24 24" fill="none" xmlns="http://www.w3.org/2000/svg">
<path d="M8.4871 3.746C8.4871 7.938 12.0791 5.406 13.0791 9.5C13.0791 10.328 14.0791 11 15.0791 11C16.0791 11 17.0791 10.328 17.0791 9.5C17.0791 9.10218 17.2371 8.72064 17.5184 8.43934C17.7997 8.15804 18.1813 8 18.5791 8H20.0791M4.0591 8.471C8.0791 10.719 5.8351 12.687 8.9371 14.116C12.1801 15.61 11.0001 21 11.0001 21M20.3661 15H18.0791C17.2835 15 16.5204 15.3161 15.9578 15.8787C15.3952 16.4413 15.0791 17.2044 15.0791 18V20M21.0791 12C21.0791 16.9706 17.0497 21 12.0791 21C7.10854 21 3.0791 16.9706 3.0791 12C3.0791 7.02944 7.10854 3 12.0791 3C17.0497 3 21.0791 7.02944 21.0791 12Z" stroke="white" stroke-width="2" stroke-linecap="round" stroke-linejoin="round"/>
</svg>
