<svg width="24" height="24" viewBox="0 0 24 24" fill="none" xmlns="http://www.w3.org/2000/svg">
<path d="M18 14V18.833C18.0001 18.9863 17.97 19.1381 17.9114 19.2797C17.8528 19.4214 17.7669 19.5501 17.6585 19.6585C17.5501 19.7669 17.4214 19.8528 17.2797 19.9114C17.1381 19.97 16.9863 20.0001 16.833 20H5.167C5.01371 20.0001 4.8619 19.97 4.72025 19.9114C4.57861 19.8528 4.44991 19.7669 4.34151 19.6585C4.23312 19.5501 4.14717 19.4214 4.08857 19.2797C4.02996 19.1381 3.99987 18.9863 4 18.833V7.167C3.99987 7.01371 4.02996 6.8619 4.08857 6.72025C4.14717 6.57861 4.23312 6.44991 4.34151 6.34151C4.44991 6.23312 4.57861 6.14717 4.72025 6.08856C4.8619 6.02996 5.01371 5.99987 5.167 6H9.785M14.232 4H20V9.768M12.111 11.889L19.889 4.111" stroke="white" stroke-width="2" stroke-linecap="round" stroke-linejoin="round"/>
</svg>
